<svg width="89" height="80.167" xmlns="http://www.w3.org/2000/svg">
 <g>
  <title>background</title>
  <rect x="-1" y="-1" width="91" height="82.167" id="canvas_background" fill="none"/>
 </g>

 <g>
  <title>Layer 1</title>
  <g id="svg_1">
   <path d="m72.32564,42.58966c-0.38643,-0.42014 -0.71414,-0.87855 -0.98424,-1.36256c-0.13278,13.00844 -11.31354,23.55317 -25.03987,23.55317c-13.80861,0 -25.04299,-10.67086 -25.04299,-23.78682s11.23438,-23.78682 25.04299,-23.78682c11.879,0 21.8525,7.89723 24.40801,18.45409l2.26781,-16.01329l0.05107,-0.36004c-6.45758,-7.1634 -16.04295,-11.71137 -26.7269,-11.71137c-8.33527,0 -16.00152,2.76931 -22.03607,7.38789l0,0.34576l0,0.30614l0,6.78261l0,0.26922c0,4.53045 -2.4721,8.66663 -6.38381,11.03009l0,26.51221l0,0.45679c6.40481,8.32465 16.75765,13.74362 28.41989,13.74362c12.25465,0 23.06429,-5.98356 29.36554,-15.03503l0,-0.48967l0,-14.20068c-1.27847,-0.39508 -2.43691,-1.11274 -3.34143,-2.09531z" id="svg_2" fill="#ff9f0d"/>
   <path d="m46.30153,21.24929c-11.46192,0 -20.78712,8.85717 -20.78712,19.74443s9.32491,19.74443 20.78712,19.74443s20.78712,-8.85717 20.78712,-19.74443s-9.32519,-19.74443 -20.78712,-19.74443z" id="svg_3" fill="#ff9f0d"/>
   <path d="m86.07013,4.0443c0,-1.72045 -1.46828,-3.11507 -3.27958,-3.11507c-1.6422,0 -3.03132,1.1537 -3.25007,2.69978l-4.79212,33.83461c-0.12626,0.89068 0.15889,1.78944 0.78138,2.46586c0.62278,0.67643 1.52247,1.06423 2.46869,1.06423l1.92422,0l0,36.29185c0,1.63717 1.39735,2.96443 3.12098,2.96443s3.12098,-1.32725 3.12098,-2.96443l-0.09448,-73.24127l0,0.00001z" id="svg_4" fill="#ff9f0d"/>
   <path d="m20.00958,4.70214c0,-1.11651 -0.95246,-2.0212 -2.12794,-2.0212s-2.12794,0.90469 -2.12794,2.0212l0,11.1837l-3.12098,0l0,-11.1837c0,-1.11651 -0.95246,-2.0212 -2.12794,-2.0212s-2.12794,0.90469 -2.12794,2.0212l0,11.1837l-3.12098,0l0,-11.1837c0,-1.11651 -0.95246,-2.0212 -2.12794,-2.0212s-2.12794,0.90469 -2.12794,2.0212l0,18.23553c0,3.93972 2.67184,7.29599 6.38381,8.52569l0,45.82221c0,1.63717 1.39735,2.96443 3.12098,2.96443s3.12098,-1.32725 3.12098,-2.96443l0,-45.82221c3.71197,-1.2297 6.38381,-4.58597 6.38381,-8.52569l0,-18.23553l0.00002,0z" id="svg_5" fill="#ff9f0d"/>
  </g>
  <g id="svg_6"/>
  <g id="svg_7"/>
  <g id="svg_8"/>
  <g id="svg_9"/>
  <g id="svg_10"/>
  <g id="svg_11"/>
  <g id="svg_12"/>
  <g id="svg_13"/>
  <g id="svg_14"/>
  <g id="svg_15"/>
  <g id="svg_16"/>
  <g id="svg_17"/>
  <g id="svg_18"/>
  <g id="svg_19"/>
  <g id="svg_20"/>
 </g>
</svg>